<svg width="16" height="16" viewBox="0 0 16 16" fill="none" xmlns="http://www.w3.org/2000/svg">
<path d="M8.00002 16C7.92712 16 7.8541 15.9514 7.8541 15.8786L7.05173 9.73598L3.89063 12.3338C3.86629 12.3581 3.81773 12.3581 3.79339 12.3581C3.7447 12.3581 3.72049 12.3338 3.69615 12.3095C3.64746 12.2609 3.64746 12.1638 3.69615 12.1153L6.32223 8.93473L0.145921 8.15785C0.0729029 8.13355 0 8.08495 0 8.01215C0 7.93936 0.048681 7.86646 0.121581 7.86646L6.27358 7.04099L3.6718 3.8847C3.62312 3.81191 3.62312 3.739 3.6718 3.69052C3.69614 3.66622 3.7447 3.64191 3.76905 3.64191C3.79339 3.64191 3.84194 3.64191 3.86629 3.66621L7.05171 6.26402L7.85408 0.121396C7.85408 0.0486069 7.92698 0 8 0C8.0729 0 8.14592 0.0486069 8.14592 0.121396L8.9483 6.26402L12.158 3.66621C12.1824 3.64191 12.2309 3.64191 12.2553 3.64191C12.304 3.64191 12.3282 3.66621 12.3525 3.69052C12.4012 3.73913 12.4012 3.83622 12.3525 3.8847L9.75074 7.04099L15.8784 7.84215C15.9513 7.84215 16 7.91493 16 7.98784C16 8.06063 15.9513 8.13354 15.8784 8.13354L9.72643 8.95901L12.3525 12.1396C12.4012 12.2124 12.4012 12.2853 12.3525 12.3338C12.3282 12.3581 12.2796 12.3824 12.2553 12.3824C12.2309 12.3824 12.1824 12.3824 12.158 12.3581L8.9483 9.71167L8.14592 15.8543C8.14592 15.9272 8.09724 16 8 16L8.00002 16Z" fill="#FF8952"/>
</svg>
