<svg width="25" height="24" viewBox="0 0 25 24" fill="none" xmlns="http://www.w3.org/2000/svg">
<path d="M15.0969 18.82C14.9069 18.82 14.7169 18.75 14.5669 18.6C14.2769 18.31 14.2769 17.83 14.5669 17.54L20.1069 12L14.5669 6.46C14.2769 6.17 14.2769 5.69 14.5669 5.4C14.8569 5.11 15.3369 5.11 15.6269 5.4L21.6969 11.47C21.9869 11.76 21.9869 12.24 21.6969 12.53L15.6269 18.6C15.4769 18.75 15.2869 18.82 15.0969 18.82Z" fill="white"/>
<path d="M20.9967 12.75H4.16675C3.75675 12.75 3.41675 12.41 3.41675 12C3.41675 11.59 3.75675 11.25 4.16675 11.25H20.9967C21.4067 11.25 21.7467 11.59 21.7467 12C21.7467 12.41 21.4067 12.75 20.9967 12.75Z" fill="white"/>
</svg>
